<svg width="3291" height="1350" xmlns="http://www.w3.org/2000/svg" xmlns:xlink="http://www.w3.org/1999/xlink" xml:space="preserve" overflow="hidden"><defs><clipPath id="clip0"><rect x="848" y="1108" width="377" height="655"/></clipPath><clipPath id="clip1"><rect x="848" y="1108" width="377" height="656"/></clipPath></defs><g transform="translate(-658 -463)"><path d="M0 0 753.141 611.599" stroke="#FFFFFF" stroke-width="45.8333" stroke-miterlimit="8" fill="none" fill-rule="evenodd" transform="matrix(-1 0 0 1 1434.14 481)"/><path d="M1224 490 2012.19 1050.31" stroke="#FFFFFF" stroke-width="45.8333" stroke-miterlimit="8" fill="none" fill-rule="evenodd"/><g clip-path="url(#clip0)"><g clip-path="url(#clip1)"><g><path d="M274.287 172.642 274.287 172.642C295.285 138.518 306.403 99.2369 306.405 59.1701L115.753 59.1701 115.753 65.8702C115.751 101.699 124.641 136.969 141.627 168.516L145.386 175.502C156.789 196.674 158.039 221.857 148.79 244.055L138.794 268.049C110.097 336.924 95.3238 410.799 95.3259 485.413L95.3259 559.243C95.3279 573.053 105.666 584.676 119.382 586.288L131.522 587.718C184.378 593.935 237.779 593.935 290.635 587.718L302.775 586.288C316.491 584.676 326.829 573.053 326.832 559.243L326.832 495.729C326.834 414.456 309.303 334.14 275.437 260.26L269.704 247.745C258.6 223.515 260.319 195.342 274.287 172.642Z" stroke="#FFFFFF" stroke-width="6.80899" fill="none" transform="matrix(1 0 0 1.00052 848 1109)"/><path d="M381.303 420.047 381.303 526.464C381.288 538.2 388.792 548.627 399.926 552.339L422.157 559.699 422.157 583.462 524.292 583.462 524.292 559.699 546.524 552.291C557.641 548.585 565.141 538.183 565.146 526.464L565.146 420.047Z" stroke="#FFFFFF" stroke-width="6.80899" fill="none" transform="matrix(1 0 0 1.00052 848 1109)"/></g></g></g><rect x="1264.5" y="1436.5" width="257" height="260" stroke="#FFFFFF" stroke-width="6.875" stroke-miterlimit="8" fill="none"/><rect x="1530.5" y="1436.5" width="257" height="260" stroke="#FFFFFF" stroke-width="6.875" stroke-miterlimit="8" fill="none"/><rect x="1393.5" y="1176.5" width="257" height="260" stroke="#FFFFFF" stroke-width="6.875" stroke-miterlimit="8" fill="none"/><rect x="1472.5" y="1220.5" width="99" height="28.9999" stroke="#FFFFFF" stroke-width="6.875" stroke-miterlimit="8" fill="#FFFFFF"/><rect x="1335.5" y="1479.5" width="99" height="28.9999" stroke="#FFFFFF" stroke-width="6.875" stroke-miterlimit="8" fill="#FFFFFF"/><rect x="1611.5" y="1478.5" width="99" height="29.9999" stroke="#FFFFFF" stroke-width="6.875" stroke-miterlimit="8" fill="#FFFFFF"/><text fill="#FFFFFF" font-family="HGMaruGothicMPRO,HGMaruGothicMPRO_MSFontService,sans-serif" font-weight="700" font-size="202" transform="matrix(1 0 0 1 1224.03 977)">酒</text><path d="M1139.5 902.5C1139.5 797.014 1227.25 711.5 1335.5 711.5 1443.75 711.5 1531.5 797.014 1531.5 902.5 1531.5 1007.99 1443.75 1093.5 1335.5 1093.5 1227.25 1093.5 1139.5 1007.99 1139.5 902.5ZM1154.97 902.5C1154.97 999.444 1235.79 1078.03 1335.5 1078.03 1435.21 1078.03 1516.03 999.444 1516.03 902.5 1516.03 805.556 1435.21 726.967 1335.5 726.967 1235.79 726.967 1154.97 805.556 1154.97 902.5Z" stroke="#FFFFFF" stroke-width="6.875" stroke-miterlimit="8" fill="#FFFFFF" fill-rule="evenodd"/><path d="M819.5 1000.5 819.5 1799.04" stroke="#FFFFFF" stroke-width="25.2083" stroke-miterlimit="8" fill="none" fill-rule="evenodd"/><path d="M1882.5 969.5 1882.5 1799.82" stroke="#FFFFFF" stroke-width="25.2083" stroke-miterlimit="8" fill="none" fill-rule="evenodd"/><path d="M827.5 1788.5 1882.03 1788.5" stroke="#FFFFFF" stroke-width="25.2083" stroke-miterlimit="8" fill="none" fill-rule="evenodd"/><text fill="#FFFFFF" font-family="Yu Gothic,Yu Gothic_MSFontService,sans-serif" font-weight="700" font-size="367" transform="matrix(1 0 0 1 2262.26 1292)">サカグラ</text><path d="M2229 1450 3753.48 1450" stroke="#FFFFFF" stroke-width="18.3333" stroke-miterlimit="8" fill="none" fill-rule="evenodd"/><text fill="#FFFFFF" font-family="Yu Gothic,Yu Gothic_MSFontService,sans-serif" font-weight="700" font-size="128" transform="matrix(1 0 0 1 2329.02 1627)">お酒の在庫管理アプリ</text></g></svg>